REM DIRINDEX 1\2,1\4,1\3\5,1\3\6,1\3\7
REM DIRNAME cjc081,folder01,folder02,folder03,folder04,folder05,folder06
TITLE ""
FILE "CD1Track22.mp3" MP3
  TRACK 01 AUDIO
    TITLE "0:"
    INDEX 01 00:00:00
  TRACK 02 AUDIO
    TITLE "4:cjc081_0330"
    INDEX 01 00:00:21
  TRACK 03 AUDIO
    TITLE "0:"
    INDEX 01 00:04:23
  TRACK 04 AUDIO
    TITLE "5:cjc081_0331"
    INDEX 01 00:04:70
  TRACK 05 AUDIO
    TITLE "0:"
    INDEX 01 00:06:18
  TRACK 06 AUDIO
    TITLE "6:cjc081_0332"
    INDEX 01 00:06:65
  TRACK 07 AUDIO
    TITLE "0:"
    INDEX 01 00:08:11
  TRACK 08 AUDIO
    TITLE "5:cjc081_0333"
    INDEX 01 00:08:56
  TRACK 09 AUDIO
    TITLE "0:"
    INDEX 01 00:10:27
  TRACK 10 AUDIO
    TITLE "6:cjc081_0334"
    INDEX 01 00:10:74
  TRACK 11 AUDIO
    TITLE "0:"
    INDEX 01 00:12:05
  TRACK 12 AUDIO
    TITLE "5:cjc081_0335"
    INDEX 01 00:12:48
  TRACK 13 AUDIO
    TITLE "0:"
    INDEX 01 00:13:57
  TRACK 14 AUDIO
    TITLE "6:cjc081_0336"
    INDEX 01 00:14:25
  TRACK 15 AUDIO
    TITLE "0:"
    INDEX 01 00:15:30
  TRACK 16 AUDIO
    TITLE "5:cjc081_0337"
    INDEX 01 00:15:74
  TRACK 17 AUDIO
    TITLE "0:"
    INDEX 01 00:17:39
  TRACK 18 AUDIO
    TITLE "6:cjc081_0338"
    INDEX 01 00:18:11
  TRACK 19 AUDIO
    TITLE "0:"
    INDEX 01 00:19:18
  TRACK 20 AUDIO
    TITLE "5:cjc081_0339"
    INDEX 01 00:19:62
  TRACK 21 AUDIO
    TITLE "0:"
    INDEX 01 00:21:13
  TRACK 22 AUDIO
    TITLE "6:cjc081_0340"
    INDEX 01 00:21:58
  TRACK 23 AUDIO
    TITLE "0:"
    INDEX 01 00:22:50
  TRACK 24 AUDIO
    TITLE "5:cjc081_0341"
    INDEX 01 00:23:18
  TRACK 25 AUDIO
    TITLE "0:"
    INDEX 01 00:24:35
  TRACK 26 AUDIO
    TITLE "6:cjc081_0342"
    INDEX 01 00:25:07
  TRACK 27 AUDIO
    TITLE "0:"
    INDEX 01 00:26:20
  TRACK 28 AUDIO
    TITLE "5:cjc081_0343"
    INDEX 01 00:26:62
  TRACK 29 AUDIO
    TITLE "0:"
    INDEX 01 00:28:21
  TRACK 30 AUDIO
    TITLE "6:cjc081_0344"
    INDEX 01 00:28:64
  TRACK 31 AUDIO
    TITLE "0:"
    INDEX 01 00:30:08
  TRACK 32 AUDIO
    TITLE "5:cjc081_0345"
    INDEX 01 00:30:55
  TRACK 33 AUDIO
    TITLE "0:"
    INDEX 01 00:32:05
  TRACK 34 AUDIO
    TITLE "6:cjc081_0346"
    INDEX 01 00:32:54
  TRACK 35 AUDIO
    TITLE "0:"
    INDEX 01 00:34:59
  TRACK 36 AUDIO
    TITLE "5:cjc081_0347"
    INDEX 01 00:35:27
  TRACK 37 AUDIO
    TITLE "0:"
    INDEX 01 00:36:66
  TRACK 38 AUDIO
    TITLE "6:cjc081_0348"
    INDEX 01 00:37:38
  TRACK 39 AUDIO
    TITLE "0:"
    INDEX 01 00:38:53
  TRACK 40 AUDIO
    TITLE "5:cjc081_0349"
    INDEX 01 00:39:19
  TRACK 41 AUDIO
    TITLE "0:"
    INDEX 01 00:40:50
  TRACK 42 AUDIO
    TITLE "6:cjc081_0350"
    INDEX 01 00:41:24
  TRACK 43 AUDIO
    TITLE "0:"
    INDEX 01 00:44:50
  TRACK 44 AUDIO
    TITLE "5:cjc081_0351"
    INDEX 01 00:45:20
  TRACK 45 AUDIO
    TITLE "0:"
    INDEX 01 00:46:47
  TRACK 46 AUDIO
    TITLE "6:cjc081_0352"
    INDEX 01 00:47:17
  TRACK 47 AUDIO
    TITLE "0:"
    INDEX 01 00:48:20
  TRACK 48 AUDIO
    TITLE "5:cjc081_0353"
    INDEX 01 00:48:69
  TRACK 49 AUDIO
    TITLE "0:"
    INDEX 01 00:50:21
  TRACK 50 AUDIO
    TITLE "6:cjc081_0354"
    INDEX 01 00:50:68
  TRACK 51 AUDIO
    TITLE "0:"
    INDEX 01 00:51:60
  TRACK 52 AUDIO
    TITLE "5:cjc081_0355"
    INDEX 01 00:52:32
  TRACK 53 AUDIO
    TITLE "0:"
    INDEX 01 00:53:53
  TRACK 54 AUDIO
    TITLE "6:cjc081_0356"
    INDEX 01 00:54:23
  TRACK 55 AUDIO
    TITLE "0:"
    INDEX 01 00:55:51
  TRACK 56 AUDIO
    TITLE "5:cjc081_0357"
    INDEX 01 00:56:22
  TRACK 57 AUDIO
    TITLE "0:"
    INDEX 01 00:57:46
  TRACK 58 AUDIO
    TITLE "6:cjc081_0358"
    INDEX 01 00:58:18
  TRACK 59 AUDIO
    TITLE "0:"
    INDEX 01 00:59:59
  TRACK 60 AUDIO
    TITLE "5:cjc081_0359"
    INDEX 01 01:00:29
  TRACK 61 AUDIO
    TITLE "0:"
    INDEX 01 01:01:56
  TRACK 62 AUDIO
    TITLE "6:cjc081_0360"
    INDEX 01 01:02:26
  TRACK 63 AUDIO
    TITLE "0:"
    INDEX 01 01:04:15
  TRACK 64 AUDIO
    TITLE "5:cjc081_0361"
    INDEX 01 01:04:58
  TRACK 65 AUDIO
    TITLE "0:"
    INDEX 01 01:06:02
  TRACK 66 AUDIO
    TITLE "6:cjc081_0362"
    INDEX 01 01:06:49
  TRACK 67 AUDIO
    TITLE "0:"
    INDEX 01 01:07:51
  TRACK 68 AUDIO
    TITLE "5:cjc081_0363"
    INDEX 01 01:08:21
  TRACK 69 AUDIO
    TITLE "0:"
    INDEX 01 01:09:48
  TRACK 70 AUDIO
    TITLE "6:cjc081_0364"
    INDEX 01 01:10:20
  TRACK 71 AUDIO
    TITLE "0:"
    INDEX 01 01:12:05
  TRACK 72 AUDIO
    TITLE "5:cjc081_0365"
    INDEX 01 01:12:54
  TRACK 73 AUDIO
    TITLE "0:"
    INDEX 01 01:13:65
  TRACK 74 AUDIO
    TITLE "6:cjc081_0366"
    INDEX 01 01:14:41
  TRACK 75 AUDIO
    TITLE "0:"
    INDEX 01 01:15:62
  TRACK 76 AUDIO
    TITLE "5:cjc081_0367"
    INDEX 01 01:16:32
  TRACK 77 AUDIO
    TITLE "0:"
    INDEX 01 01:17:47
  TRACK 78 AUDIO
    TITLE "6:cjc081_0368"
    INDEX 01 01:18:19
  TRACK 79 AUDIO
    TITLE "0:"
    INDEX 01 01:19:74
  TRACK 80 AUDIO
    TITLE "5:cjc081_0369"
    INDEX 01 01:20:42
  TRACK 81 AUDIO
    TITLE "0:"
    INDEX 01 01:21:70
  TRACK 82 AUDIO
    TITLE "6:cjc081_0370"
    INDEX 01 01:22:41
  TRACK 83 AUDIO
    TITLE "0:"
    INDEX 01 01:24:26
  TRACK 84 AUDIO
    TITLE "5:cjc081_0371"
    INDEX 01 01:24:73
  TRACK 85 AUDIO
    TITLE "0:"
    INDEX 01 01:26:23
  TRACK 86 AUDIO
    TITLE "6:cjc081_0372"
    INDEX 01 01:26:68
  TRACK 87 AUDIO
    TITLE "0:"
    INDEX 01 01:27:69
  TRACK 88 AUDIO
    TITLE "5:cjc081_0373"
    INDEX 01 01:28:39
  TRACK 89 AUDIO
    TITLE "0:"
    INDEX 01 01:29:62
  TRACK 90 AUDIO
    TITLE "6:cjc081_0374"
    INDEX 01 01:30:30
  TRACK 91 AUDIO
    TITLE "0:"
    INDEX 01 01:35:69
  TRACK 92 AUDIO
    TITLE "5:cjc081_0375"
    INDEX 01 01:36:41
  TRACK 93 AUDIO
    TITLE "0:"
    INDEX 01 01:37:48
  TRACK 94 AUDIO
    TITLE "6:cjc081_0376"
    INDEX 01 01:38:20
  TRACK 95 AUDIO
    TITLE "0:"
    INDEX 01 01:39:33
  TRACK 96 AUDIO
    TITLE "5:cjc081_0377"
    INDEX 01 01:40:01
  TRACK 97 AUDIO
    TITLE "0:"
    INDEX 01 01:41:12
  TRACK 98 AUDIO
    TITLE "6:cjc081_0378"
    INDEX 01 01:41:63
  TRACK 99 AUDIO
    TITLE "0:"
    INDEX 01 01:44:60
  TRACK 100 AUDIO
    TITLE "5:cjc081_0379"
    INDEX 01 01:45:28
  TRACK 101 AUDIO
    TITLE "0:"
    INDEX 01 01:47:09
  TRACK 102 AUDIO
    TITLE "6:cjc081_0380"
    INDEX 01 01:47:54
  TRACK 103 AUDIO
    TITLE "0:"
    INDEX 01 01:49:57
  TRACK 104 AUDIO
    TITLE "5:cjc081_0381"
    INDEX 01 01:50:27
  TRACK 105 AUDIO
    TITLE "0:"
    INDEX 01 01:51:44
  TRACK 106 AUDIO
    TITLE "6:cjc081_0382"
    INDEX 01 01:52:20
  TRACK 107 AUDIO
    TITLE "0:"
    INDEX 01 01:53:53
  TRACK 108 AUDIO
    TITLE "5:cjc081_0383"
    INDEX 01 01:54:23
  TRACK 109 AUDIO
    TITLE "0:"
    INDEX 01 01:55:65
  TRACK 110 AUDIO
    TITLE "6:cjc081_0384"
    INDEX 01 01:56:37
  TRACK 111 AUDIO
    TITLE "0:"
    INDEX 01 01:57:74
  TRACK 112 AUDIO
    TITLE "5:cjc081_0385"
    INDEX 01 01:58:42
  TRACK 113 AUDIO
    TITLE "0:"
    INDEX 01 02:00:08
  TRACK 114 AUDIO
    TITLE "6:cjc081_0386"
    INDEX 01 02:00:55
  TRACK 115 AUDIO
    TITLE "0:"
    INDEX 01 02:02:26
  TRACK 116 AUDIO
    TITLE "5:cjc081_0387"
    INDEX 01 02:02:67
  TRACK 117 AUDIO
    TITLE "0:"
    INDEX 01 02:04:29
  TRACK 118 AUDIO
    TITLE "6:cjc081_0388"
    INDEX 01 02:05:07
  TRACK 119 AUDIO
    TITLE "0:"
    INDEX 01 02:06:32
  TRACK 120 AUDIO
    TITLE "7:cjc081_0389"
    INDEX 01 02:07:69
  TRACK 121 AUDIO
    TITLE "0:"
    INDEX 01 02:18:29
